<?xml version="1.0" encoding="UTF-8" standalone="no"?>
<!-- Created with Inkscape (http://www.inkscape.org/) -->

<svg
   xmlns:dc="http://purl.org/dc/elements/1.1/"
   xmlns:cc="http://creativecommons.org/ns#"
   xmlns:rdf="http://www.w3.org/1999/02/22-rdf-syntax-ns#"
   xmlns:svg="http://www.w3.org/2000/svg"
   xmlns="http://www.w3.org/2000/svg"
   xmlns:sodipodi="http://sodipodi.sourceforge.net/DTD/sodipodi-0.dtd"
   xmlns:inkscape="http://www.inkscape.org/namespaces/inkscape"
   width="206.21214mm"
   height="40.252281mm"
   viewBox="0 0 206.21214 40.252281"
   version="1.1"
   id="svg902"
   inkscape:version="0.92.4 (unknown)"
   sodipodi:docname="webgate_light.svg">
  <defs
     id="defs896" />
  <sodipodi:namedview
     id="base"
     pagecolor="#ffffff"
     bordercolor="#666666"
     borderopacity="1.0"
     inkscape:pageopacity="0.0"
     inkscape:pageshadow="2"
     inkscape:zoom="0.7"
     inkscape:cx="426.26427"
     inkscape:cy="-91.214853"
     inkscape:document-units="mm"
     inkscape:current-layer="text957"
     showgrid="false"
     inkscape:window-width="1855"
     inkscape:window-height="1056"
     inkscape:window-x="65"
     inkscape:window-y="24"
     inkscape:window-maximized="1"
     fit-margin-top="0"
     fit-margin-left="0"
     fit-margin-right="0"
     fit-margin-bottom="0" />
  <metadata
     id="metadata899">
    <rdf:RDF>
      <cc:Work
         rdf:about="">
        <dc:format>image/svg+xml</dc:format>
        <dc:type
           rdf:resource="http://purl.org/dc/dcmitype/StillImage" />
        <dc:title></dc:title>
      </cc:Work>
    </rdf:RDF>
  </metadata>
  <g
     inkscape:label="Layer 1"
     inkscape:groupmode="layer"
     id="layer1"
     transform="translate(-3.4832176,-7.7548124)">
    <g
       aria-label="WebGate"
       style="font-style:normal;font-weight:normal;font-size:34.44933319px;line-height:125%;font-family:sans-serif;letter-spacing:0px;word-spacing:0px;fill:#ffffff;fill-opacity:1;stroke:none;stroke-width:0.26458332px;stroke-linecap:butt;stroke-linejoin:miter;stroke-opacity:1"
       id="text957">
      <g
         id="g836"
         inkscape:export-xdpi="94.099998"
         inkscape:export-ydpi="94.099998">
        <path
           d="m 28.158168,22.583889 c -0.80007,-4.927336 -2.68714,-8.386949 -4.88321,-8.386949 -2.19606,0 -4.08314,3.459639 -4.88321,8.386949 z m -10.18025,5.29709 c 0,1.224889 0.0662,2.400168 0.18208,3.531315 h 10.2244 c 0.11588,-1.131147 0.18209,-2.306426 0.18209,-3.531315 0,-1.224941 -0.0662,-2.400273 -0.18209,-3.53142 h -10.2244 c -0.11587,1.131147 -0.18208,2.306479 -0.18208,3.53142 z m 17.91614,-5.29709 c -1.57807,-3.746554 -4.77285,-6.643345 -8.71805,-7.813147 1.34633,1.865022 2.27332,4.673574 2.75888,7.813147 z m -16.52567,-7.813147 c -3.93967,1.169802 -7.13997,4.066593 -8.71252,7.813147 h 5.95917 c 0.48004,-3.139573 1.40702,-5.948125 2.75335,-7.813147 z m 17.11607,9.578817 h -6.32886 c 0.11587,1.158743 0.18208,2.345081 0.18208,3.53142 0,1.186286 -0.0662,2.372625 -0.18208,3.531315 h 6.32334 c 0.30348,-1.131147 0.47453,-2.306426 0.47453,-3.531315 0,-1.224941 -0.17105,-2.400273 -0.46901,-3.53142 z m -20.27222,3.53142 c 0,-1.186339 0.0662,-2.372677 0.18208,-3.53142 h -6.32885 c -0.2979604,1.131147 -0.4745304,2.306479 -0.4745304,3.53142 0,1.224889 0.17657,2.400168 0.4745304,3.531315 h 6.32334 c -0.11036,-1.15869 -0.17657,-2.345029 -0.17657,-3.531315 z m 2.17951,5.297011 c 0.80007,4.927336 2.68715,8.386975 4.88321,8.386975 2.19607,0 4.08314,-3.459639 4.88321,-8.386975 z m 8.78978,7.81312 c 3.93968,-1.169776 7.13997,-4.06654 8.71805,-7.81312 h -5.95917 c -0.48557,3.139599 -1.41255,5.948125 -2.75888,7.81312 z m -16.52566,-7.81312 c 1.57807,3.74658 4.77285,6.643344 8.71804,7.81312 -1.34633,-1.864995 -2.27331,-4.673521 -2.75888,-7.81312 z"
           id="path947"
           inkscape:connector-curvature="0"
           style="fill:#e6e6e6;fill-opacity:1;stroke-width:0.26458332" />
        <path
           style="color:#000000;font-style:normal;font-variant:normal;font-weight:normal;font-stretch:normal;font-size:medium;line-height:normal;font-family:sans-serif;font-variant-ligatures:normal;font-variant-position:normal;font-variant-caps:normal;font-variant-numeric:normal;font-variant-alternates:normal;font-feature-settings:normal;text-indent:0;text-align:start;text-decoration:none;text-decoration-line:none;text-decoration-style:solid;text-decoration-color:#000000;letter-spacing:normal;word-spacing:normal;text-transform:none;writing-mode:lr-tb;direction:ltr;text-orientation:mixed;dominant-baseline:auto;baseline-shift:baseline;text-anchor:start;white-space:normal;shape-padding:0;clip-rule:nonzero;display:inline;overflow:visible;visibility:visible;opacity:1;isolation:auto;mix-blend-mode:normal;color-interpolation:sRGB;color-interpolation-filters:linearRGB;solid-color:#000000;solid-opacity:1;vector-effect:none;fill:#cccccc;fill-opacity:1;fill-rule:nonzero;stroke:none;stroke-width:6.3499999;stroke-linecap:butt;stroke-linejoin:miter;stroke-miterlimit:4;stroke-dasharray:none;stroke-dashoffset:0;stroke-opacity:1;color-rendering:auto;image-rendering:auto;shape-rendering:auto;text-rendering:auto;enable-background:accumulate"
           d="M 3.4832176,7.7548124 V 8.9982218 48.007093 H 43.061183 V 7.7548124 Z m 2.48679,2.4867926 H 40.574398 V 45.5203 H 5.9700076 Z"
           id="path949"
           inkscape:connector-curvature="0" />
        <path
           id="path817"
           style="font-style:normal;font-variant:normal;font-weight:bold;font-stretch:normal;font-size:34.30210495px;line-height:124.00000095%;font-family:Montserrat;-inkscape-font-specification:'Montserrat Bold';fill:#e6e6e6;stroke-width:0.26458332px"
           d="M 86.388397,16.657388 78.533215,40.668861 H 72.564648 L 67.282124,24.409664 61.828089,40.668861 H 55.893825 L 48.004341,16.657388 h 5.762754 l 5.419732,16.876636 5.659848,-16.876636 h 5.145315 l 5.488337,17.013844 5.591243,-17.013844 z" />
        <path
           id="path819"
           style="font-style:normal;font-variant:normal;font-weight:bold;font-stretch:normal;font-size:34.30210495px;line-height:124.00000095%;font-family:Montserrat;-inkscape-font-specification:'Montserrat Bold';fill:#e6e6e6;stroke-width:0.26458332px"
           d="m 105.78356,31.510199 q 0,0.102907 -0.10291,1.440689 H 91.719693 q 0.377323,1.715105 1.783709,2.709866 1.406387,0.994761 3.498815,0.994761 1.440689,0 2.538356,-0.411625 1.131967,-0.445928 2.092427,-1.372084 l 2.84708,3.087189 q -2.60696,2.984283 -7.615071,2.984283 -3.121492,0 -5.522639,-1.200573 -2.401148,-1.234876 -3.704627,-3.395909 -1.30348,-2.161032 -1.30348,-4.905201 0,-2.709866 1.269177,-4.870899 1.30348,-2.195334 3.533117,-3.395908 2.263939,-1.234876 5.04241,-1.234876 2.709866,0 4.905203,1.166272 2.19533,1.166271 3.43021,3.361606 1.26918,2.161033 1.26918,5.042409 z M 96.213269,25.98756 q -1.818012,0 -3.052888,1.029064 -1.234875,1.029063 -1.509292,2.812772 h 9.090061 q -0.27442,-1.749407 -1.509296,-2.77847 -1.234876,-1.063366 -3.018585,-1.063366 z" />
        <path
           id="path821"
           style="font-style:normal;font-variant:normal;font-weight:bold;font-stretch:normal;font-size:34.30210495px;line-height:124.00000095%;font-family:Montserrat;-inkscape-font-specification:'Montserrat Bold';fill:#e6e6e6;stroke-width:0.26458332px"
           d="m 120.25422,21.939912 q 2.57266,0 4.66509,1.200574 2.12673,1.166271 3.3273,3.327304 1.20058,2.12673 1.20058,4.973805 0,2.847075 -1.20058,5.008107 -1.20057,2.126731 -3.3273,3.327305 -2.09243,1.166271 -4.66509,1.166271 -3.80753,0 -5.79705,-2.401147 v 2.12673 h -5.11102 V 15.2167 h 5.35113 v 8.952849 q 2.02382,-2.229637 5.55694,-2.229637 z m -0.92616,14.612697 q 2.05813,0 3.36161,-1.372084 1.33778,-1.406387 1.33778,-3.73893 0,-2.332543 -1.33778,-3.704627 -1.30348,-1.406386 -3.36161,-1.406386 -2.05812,0 -3.3959,1.406386 -1.30348,1.372084 -1.30348,3.704627 0,2.332543 1.30348,3.73893 1.33778,1.372084 3.3959,1.372084 z" />
        <path
           id="path823"
           style="font-style:normal;font-variant:normal;font-weight:normal;font-stretch:normal;font-family:Montserrat;-inkscape-font-specification:'Montserrat Bold';fill:#e6e6e6;stroke-width:0.26458332px"
           d="m 151.34747,28.663125 h 2.43545 v 9.158662 q -1.6808,1.47499 -3.97904,2.263939 -2.29825,0.788948 -4.8366,0.788948 -3.60172,0 -6.4831,-1.577897 -2.88138,-1.577897 -4.52788,-4.356367 -1.6465,-2.812773 -1.6465,-6.277285 0,-3.464513 1.6465,-6.242983 1.6465,-2.812773 4.52788,-4.39067 2.88138,-1.577897 6.5174,-1.577897 2.74417,0 5.04241,0.891855 2.29824,0.857553 3.87614,2.572658 l -1.5779,1.612199 q -2.84707,-2.812773 -7.23774,-2.812773 -2.91568,0 -5.28253,1.30348 -2.33254,1.269178 -3.67032,3.567419 -1.33778,2.263939 -1.33778,5.076712 0,2.812772 1.33778,5.076711 1.33778,2.263939 3.67032,3.567419 2.33255,1.30348 5.24823,1.30348 3.70462,0 6.27728,-1.852314 z" />
        <path
           id="path825"
           style="font-style:normal;font-variant:normal;font-weight:normal;font-stretch:normal;font-family:Montserrat;-inkscape-font-specification:'Montserrat Bold';fill:#e6e6e6;stroke-width:0.26458332px"
           d="m 166.76412,22.488746 q 3.53312,0 5.41973,1.783709 1.88662,1.749408 1.88662,5.21392 v 11.182486 h -2.33254 v -2.812772 q -0.82325,1.406386 -2.43545,2.195335 -1.5779,0.788948 -3.77323,0.788948 -3.01859,0 -4.8023,-1.440688 -1.78371,-1.440689 -1.78371,-3.807534 0,-2.298241 1.6465,-3.704627 1.68081,-1.406387 5.31683,-1.406387 h 5.72845 v -1.097667 q 0,-2.332543 -1.30348,-3.533117 -1.30348,-1.234876 -3.80753,-1.234876 -1.71511,0 -3.29301,0.583136 -1.57789,0.548834 -2.70986,1.543595 l -1.09767,-1.818012 q 1.37208,-1.166271 3.293,-1.783709 1.92092,-0.65174 4.04765,-0.65174 z m -0.85755,16.430708 q 2.05812,0 3.53312,-0.926157 1.47499,-0.960459 2.19533,-2.744168 v -2.949981 h -5.65985 q -4.63078,0 -4.63078,3.224398 0,1.577896 1.20057,2.504053 1.20058,0.891855 3.36161,0.891855 z" />
        <path
           id="path827"
           style="font-style:normal;font-variant:normal;font-weight:normal;font-stretch:normal;font-family:Montserrat;-inkscape-font-specification:'Montserrat Bold';fill:#e6e6e6;stroke-width:0.26458332px"
           d="m 190.1871,39.571194 q -0.68605,0.617438 -1.71511,0.960459 -0.99476,0.308719 -2.09243,0.308719 -2.53835,0 -3.91044,-1.372084 -1.37208,-1.372084 -1.37208,-3.876138 V 24.68408 h -3.2244 v -2.058126 h 3.2244 v -3.944742 h 2.43545 v 3.944742 h 5.48833 v 2.058126 h -5.48833 v 10.770861 q 0,1.612199 0.78895,2.469752 0.82325,0.823251 2.33254,0.823251 0.75465,0 1.44069,-0.240115 0.72034,-0.240115 1.23487,-0.686042 z" />
        <path
           id="path829"
           style="font-style:normal;font-variant:normal;font-weight:normal;font-stretch:normal;font-family:Montserrat;-inkscape-font-specification:'Montserrat Bold';fill:#e6e6e6;stroke-width:0.26458332px"
           d="m 209.66105,32.402054 h -15.09292 q 0.20581,2.812773 2.16103,4.56218 1.95522,1.715105 4.9395,1.715105 1.6808,0 3.08719,-0.583135 1.40639,-0.617438 2.43545,-1.78371 l 1.37208,1.577897 q -1.20057,1.440688 -3.01858,2.195335 -1.78371,0.754646 -3.94474,0.754646 -2.77847,0 -4.93951,-1.166272 -2.12673,-1.200573 -3.3273,-3.293002 -1.20057,-2.092428 -1.20057,-4.73369 0,-2.641262 1.13197,-4.733691 1.16627,-2.092428 3.15579,-3.2587 2.02382,-1.166271 4.52788,-1.166271 2.50405,0 4.49357,1.166271 1.98952,1.166272 3.12149,3.2587 1.13197,2.058127 1.13197,4.733691 z m -8.71273,-7.82088 q -2.60696,0 -4.39067,1.680803 -1.74941,1.646501 -1.98952,4.322066 h 12.79468 q -0.24011,-2.675565 -2.02382,-4.322066 -1.74941,-1.680803 -4.39067,-1.680803 z" />
      </g>
    </g>
  </g>
</svg>
