<?xml version="1.0" encoding="UTF-8" standalone="no"?>
<!-- Created with Inkscape (http://www.inkscape.org/) -->

<svg
   xmlns:dc="http://purl.org/dc/elements/1.1/"
   xmlns:cc="http://creativecommons.org/ns#"
   xmlns:rdf="http://www.w3.org/1999/02/22-rdf-syntax-ns#"
   xmlns:svg="http://www.w3.org/2000/svg"
   xmlns="http://www.w3.org/2000/svg"
   xmlns:sodipodi="http://sodipodi.sourceforge.net/DTD/sodipodi-0.dtd"
   xmlns:inkscape="http://www.inkscape.org/namespaces/inkscape"
   width="206.21213mm"
   height="40.252281mm"
   viewBox="0 0 206.21213 40.252281"
   version="1.1"
   id="svg902"
   inkscape:version="0.92.4 (unknown)"
   sodipodi:docname="webgate_color.svg">
  <defs
     id="defs896" />
  <sodipodi:namedview
     id="base"
     pagecolor="#ffffff"
     bordercolor="#666666"
     borderopacity="1.0"
     inkscape:pageopacity="0.0"
     inkscape:pageshadow="2"
     inkscape:zoom="0.7"
     inkscape:cx="41.052352"
     inkscape:cy="-173.66466"
     inkscape:document-units="mm"
     inkscape:current-layer="layer1"
     showgrid="false"
     inkscape:window-width="1855"
     inkscape:window-height="1056"
     inkscape:window-x="65"
     inkscape:window-y="24"
     inkscape:window-maximized="1"
     fit-margin-top="0"
     fit-margin-left="0"
     fit-margin-right="0"
     fit-margin-bottom="0" />
  <metadata
     id="metadata899">
    <rdf:RDF>
      <cc:Work
         rdf:about="">
        <dc:format>image/svg+xml</dc:format>
        <dc:type
           rdf:resource="http://purl.org/dc/dcmitype/StillImage" />
        <dc:title></dc:title>
      </cc:Work>
    </rdf:RDF>
  </metadata>
  <g
     inkscape:label="Layer 1"
     inkscape:groupmode="layer"
     id="layer1"
     transform="translate(-0.45941081,-3.2190978)">
    <path
       d="m 24.837167,18.370383 c -0.751409,-4.627642 -2.523694,-7.87683 -4.586184,-7.87683 -2.062488,0 -3.834779,3.249188 -4.586187,7.87683 z m -9.561031,4.974855 c 0,1.150408 0.06218,2.254223 0.171011,3.316552 h 9.602491 c 0.108823,-1.062329 0.171008,-2.166144 0.171008,-3.316552 0,-1.150435 -0.06218,-2.25425 -0.171008,-3.316579 h -9.602491 c -0.108826,1.062329 -0.171011,2.166144 -0.171011,3.316579 z m 16.826378,-4.974855 c -1.482087,-3.518667 -4.482539,-6.239271 -8.187764,-7.337901 1.264438,1.751568 2.135039,4.389279 2.591065,7.337901 z M 16.582035,11.032482 c -3.700042,1.09863 -6.7056772,3.819234 -8.1825842,7.337901 h 5.5966972 c 0.450847,-2.948622 1.321445,-5.586333 2.585887,-7.337901 z m 16.074969,8.996177 h -5.943907 c 0.108826,1.088258 0.171013,2.202392 0.171013,3.316579 0,1.11416 -0.06219,2.228321 -0.171013,3.316552 h 5.938726 c 0.285015,-1.062329 0.445662,-2.166144 0.445662,-3.316552 0,-1.150435 -0.160647,-2.25425 -0.440481,-3.316579 z m -19.039147,3.316579 c 0,-1.114187 0.06218,-2.228321 0.171008,-3.316579 H 7.8449608 c -0.279834,1.062329 -0.445661,2.166144 -0.445661,3.316579 0,1.150408 0.165827,2.254223 0.445661,3.316552 H 13.783685 C 13.68004,25.573559 13.617857,24.459398 13.617857,23.345238 Z m 2.046939,4.974828 c 0.751408,4.627668 2.523699,7.876857 4.586187,7.876857 2.06249,0 3.834775,-3.249189 4.586184,-7.876857 z m 8.255134,7.337901 c 3.700045,-1.098603 6.705677,-3.819207 8.18777,-7.337901 h -5.596702 c -0.456028,2.948649 -1.326626,5.586359 -2.591068,7.337901 z M 8.3994508,28.320066 c 1.48209,3.518694 4.4825422,6.239298 8.1877642,7.337901 -1.264441,-1.751542 -2.135037,-4.389252 -2.591067,-7.337901 z"
       id="path2-5"
       inkscape:connector-curvature="0"
       style="fill:#008080;stroke-width:0.26458332" />
    <path
       style="color:#000000;font-style:normal;font-variant:normal;font-weight:normal;font-stretch:normal;font-size:medium;line-height:normal;font-family:sans-serif;font-variant-ligatures:normal;font-variant-position:normal;font-variant-caps:normal;font-variant-numeric:normal;font-variant-alternates:normal;font-feature-settings:normal;text-indent:0;text-align:start;text-decoration:none;text-decoration-line:none;text-decoration-style:solid;text-decoration-color:#000000;letter-spacing:normal;word-spacing:normal;text-transform:none;writing-mode:lr-tb;direction:ltr;text-orientation:mixed;dominant-baseline:auto;baseline-shift:baseline;text-anchor:start;white-space:normal;shape-padding:0;clip-rule:nonzero;display:inline;overflow:visible;visibility:visible;opacity:1;isolation:auto;mix-blend-mode:normal;color-interpolation:sRGB;color-interpolation-filters:linearRGB;solid-color:#000000;solid-opacity:1;vector-effect:none;fill:#333333;fill-opacity:1;fill-rule:nonzero;stroke:none;stroke-width:6.3499999;stroke-linecap:butt;stroke-linejoin:miter;stroke-miterlimit:4;stroke-dasharray:none;stroke-dashoffset:0;stroke-opacity:1;color-rendering:auto;image-rendering:auto;shape-rendering:auto;text-rendering:auto;enable-background:accumulate"
       d="m 0.45941081,3.2190978 v 1.24341 39.0088702 H 40.037373 V 3.2190978 Z M 2.9462008,5.7058908 H 37.550584 V 40.984585 H 2.9462008 Z"
       id="rect817-62"
       inkscape:connector-curvature="0" />
    <text
       xml:space="preserve"
       style="font-style:normal;font-weight:normal;font-size:34.44933319px;line-height:125%;font-family:sans-serif;letter-spacing:0px;word-spacing:0px;fill:#008080;fill-opacity:1;stroke:none;stroke-width:0.26458332px;stroke-linecap:butt;stroke-linejoin:miter;stroke-opacity:1"
       x="44.225883"
       y="36.13316"
       id="text829-9"><tspan
         sodipodi:role="line"
         id="tspan827-1"
         x="44.225883"
         y="36.13316"
         style="font-style:normal;font-variant:normal;font-weight:bold;font-stretch:normal;font-size:34.30210495px;line-height:124.00000095%;font-family:Montserrat;-inkscape-font-specification:'Montserrat Bold';fill:#008080;stroke-width:0.26458332px"><tspan
           style="font-style:normal;font-variant:normal;font-weight:bold;font-stretch:normal;font-size:34.30210495px;line-height:124.00000095%;font-family:Montserrat;-inkscape-font-specification:'Montserrat Bold';fill:#333333;stroke-width:0.26458332px"
           id="tspan831-2">Web</tspan><tspan
           style="font-weight:normal;stroke-width:0.26458332px"
           id="tspan991">Gate</tspan></tspan></text>
  </g>
</svg>
